<svg xmlns="http://www.w3.org/2000/svg" viewBox="0 0 200 220" fill="none">
  <!-- Head silhouettes -->
  <g opacity="0.15" stroke="#2D1B1B" stroke-width="2" fill="none">
    <path d="M70 95 C70 60 95 40 115 40 C140 40 155 60 155 85 C155 100 148 110 140 118 L140 135 L110 135 L110 118"/>
    <path d="M50 105 C50 70 75 50 95 50 C105 50 112 54 118 60" opacity="0.5"/>
  </g>
  <!-- Gears -->
  <circle cx="95" cy="78" r="18" fill="#0190EA" opacity="0.9"/>
  <circle cx="95" cy="78" r="8" fill="white"/>
  <circle cx="120" cy="88" r="14" fill="#B91C1C" opacity="0.9"/>
  <circle cx="120" cy="88" r="6" fill="white"/>
  <!-- Gear teeth for blue -->
  <g fill="#0190EA" opacity="0.9">
    <rect x="92" y="57" width="6" height="8" rx="1"/>
    <rect x="92" y="93" width="6" height="8" rx="1"/>
    <rect x="74" y="75" width="8" height="6" rx="1"/>
    <rect x="110" y="75" width="8" height="6" rx="1"/>
    <rect x="77" y="62" width="7" height="6" rx="1" transform="rotate(-45 80 65)"/>
    <rect x="106" y="62" width="7" height="6" rx="1" transform="rotate(45 110 65)"/>
    <rect x="77" y="88" width="7" height="6" rx="1" transform="rotate(45 80 91)"/>
    <rect x="106" y="88" width="7" height="6" rx="1" transform="rotate(-45 110 91)"/>
  </g>
  <!-- Gear teeth for red -->
  <g fill="#B91C1C" opacity="0.9">
    <rect x="117" y="71" width="6" height="7" rx="1"/>
    <rect x="117" y="99" width="6" height="7" rx="1"/>
    <rect x="103" y="85" width="7" height="6" rx="1"/>
    <rect x="131" y="85" width="7" height="6" rx="1"/>
  </g>
  <!-- Text -->
  <text x="100" y="155" text-anchor="middle" font-family="Arial, sans-serif" font-size="28" font-weight="300" fill="#888" letter-spacing="4">IEDC @</text>
  <rect x="42" y="168" width="116" height="36" rx="2" fill="#FFE500"/>
  <text x="100" y="195" text-anchor="middle" font-family="Arial, sans-serif" font-size="30" font-weight="800" fill="#1a1a1a" letter-spacing="3">SAINTGITS</text>
</svg>
